<svg xmlns="http://www.w3.org/2000/svg" viewBox="0 0 120 40.22"><defs><style>.cls-1{fill:#625b71;}.cls-2{fill:#86a332;}.cls-3{fill:#ed7e1c;}.cls-4{fill:#ffbd1a;}</style></defs><g id="Layer_2" data-name="Layer 2"><g id="Layer_1-2" data-name="Layer 1"><path class="cls-1" d="M19.68,24A7.62,7.62,0,1,1,12,31.57,7.65,7.65,0,0,1,19.68,24Z"/><path class="cls-2" d="M7.66,12A7.62,7.62,0,1,1,0,19.59,7.66,7.66,0,0,1,7.66,12Z"/><path class="cls-3" d="M19.68,0A7.62,7.62,0,1,1,12,7.62,7.65,7.65,0,0,1,19.68,0Z"/><path class="cls-4" d="M31.71,12a7.62,7.62,0,1,1-7.65,7.62A7.66,7.66,0,0,1,31.71,12Z"/><path d="M111,19.92a8.42,8.42,0,0,1-3.5-.73,9,9,0,0,1-2.87-2A9.56,9.56,0,0,1,102,10.47a9.65,9.65,0,0,1,2.66-6.68,8.92,8.92,0,0,1,2.87-2,8.65,8.65,0,0,1,7,0,9.08,9.08,0,0,1,2.88,2,9.44,9.44,0,0,1,1.93,3,9.39,9.39,0,0,1,.71,3.66,9.41,9.41,0,0,1-.71,3.67,9.29,9.29,0,0,1-1.93,3,9.11,9.11,0,0,1-2.88,2,8.45,8.45,0,0,1-3.5.73Zm0-3.59a4.94,4.94,0,0,0,2.09-.45A5.91,5.91,0,0,0,116,12.74a5.87,5.87,0,0,0,.43-2.27A5.87,5.87,0,0,0,116,8.21a5.74,5.74,0,0,0-1.17-1.86,5.53,5.53,0,0,0-1.72-1.27,4.9,4.9,0,0,0-4.19,0,5.53,5.53,0,0,0-1.72,1.27A6.13,6.13,0,0,0,106,8.21a6.25,6.25,0,0,0-.42,2.26,5.94,5.94,0,0,0,1.6,4.14,5.82,5.82,0,0,0,1.72,1.27A5,5,0,0,0,111,16.33ZM79,19.59,82.54,1.36h3l4.25,11.16L94.1,1.36h3.05l3.55,18.22H97L95,9.13,91.08,19.4H88.59L84.7,9.13l-2,10.45H79Zm-1-18.23V5H72.54V19.59H68.93V5H63.55V1.36Zm-24.39,0h4.11l6.64,18.23H60.46l-1.1-3H51.83l-1.1,3H46.9L53.54,1.36ZM53.15,13H58L55.58,6.29ZM111,39.89h-2V33.32a11.54,11.54,0,0,0-.09-1.48,2.8,2.8,0,0,0-.34-1.1,1.61,1.61,0,0,0-.75-.64,3.27,3.27,0,0,0-1.27-.21,4.09,4.09,0,0,0-1.67.39,8.59,8.59,0,0,0-1.67,1V39.9h-2V23.82h2v5.82a7.88,7.88,0,0,1,1.89-1.18,4.92,4.92,0,0,1,2-.42,3.62,3.62,0,0,1,2.87,1.12,4.82,4.82,0,0,1,1,3.25V39.9Zm-11.84-.1A9.59,9.59,0,0,1,98,40a7.33,7.33,0,0,1-1.15.09,3.58,3.58,0,0,1-2.7-.95,4.28,4.28,0,0,1-.92-3.05V30H91.89V28.36h1.32V25h2v3.32h4V30h-4v5.26c0,.6,0,1.08,0,1.42a2.39,2.39,0,0,0,.29.95,1.42,1.42,0,0,0,.63.61,2.92,2.92,0,0,0,1.22.19,4,4,0,0,0,1-.14,7,7,0,0,0,.74-.23h.11v1.74Zm-9.67.1h-2V23.82h2Zm-5.52,0H82.06V38.67l-.7.49a5.51,5.51,0,0,1-.85.5,5.44,5.44,0,0,1-1.12.39,6.25,6.25,0,0,1-1.49.17,3.7,3.7,0,0,1-2.65-1,3.45,3.45,0,0,1-1.09-2.63,3.59,3.59,0,0,1,.56-2.12,3.82,3.82,0,0,1,1.62-1.28,8.66,8.66,0,0,1,2.54-.63c1-.11,2.05-.19,3.18-.25V32a2.35,2.35,0,0,0-.23-1.09,1.65,1.65,0,0,0-.67-.69,3.16,3.16,0,0,0-1-.32A9.71,9.71,0,0,0,79,29.79a8,8,0,0,0-1.71.21,12.2,12.2,0,0,0-1.95.58h-.11v-2c.38-.1.93-.21,1.65-.34A12.76,12.76,0,0,1,79,28.08a10.15,10.15,0,0,1,2.13.2,4,4,0,0,1,1.58.69,3,3,0,0,1,1,1.23A4.46,4.46,0,0,1,84,32.07V39.9Zm-1.94-2.84V33.84L80,34a11,11,0,0,0-1.91.3,3,3,0,0,0-1.36.74,1.79,1.79,0,0,0-.52,1.37,1.86,1.86,0,0,0,.6,1.5,2.85,2.85,0,0,0,1.84.5,4.35,4.35,0,0,0,1.88-.4,8.15,8.15,0,0,0,1.57-1Zm-9.81-2.72H63.71A5,5,0,0,0,64,36.19a3.54,3.54,0,0,0,.89,1.29,3.43,3.43,0,0,0,1.27.74,5.1,5.1,0,0,0,1.64.25A6.53,6.53,0,0,0,70.21,38a6.13,6.13,0,0,0,1.71-.93H72v2.11a15.4,15.4,0,0,1-2,.7,8.25,8.25,0,0,1-2.16.27,6.21,6.21,0,0,1-4.5-1.55,5.84,5.84,0,0,1-1.62-4.42,6.3,6.3,0,0,1,1.55-4.49A5.31,5.31,0,0,1,67.36,28,4.7,4.7,0,0,1,71,29.4a5.45,5.45,0,0,1,1.27,3.87v1.06Zm-1.9-1.49a3.35,3.35,0,0,0-.78-2.37,3,3,0,0,0-2.31-.83,3.38,3.38,0,0,0-2.5.92,3.52,3.52,0,0,0-1.05,2.28ZM58.76,39.9H56.7V32.37H49V39.9H46.94V24.51H49v6H56.7v-6h2.06Z"/></g></g></svg>