<svg id="visual" viewBox="0 0 960 540" width="960" height="540" xmlns="http://www.w3.org/2000/svg" xmlns:xlink="http://www.w3.org/1999/xlink" version="1.1"><rect x="0" y="0" width="960" height="540" fill="#ffffff"></rect><path d="M0 119L20 123.7C40 128.3 80 137.7 120 142.8C160 148 200 149 240 148.8C280 148.7 320 147.3 360 149.8C400 152.3 440 158.7 480 163.3C520 168 560 171 600 165C640 159 680 144 720 138.7C760 133.3 800 137.7 840 146.5C880 155.3 920 168.7 940 175.3L960 182L960 541L940 541C920 541 880 541 840 541C800 541 760 541 720 541C680 541 640 541 600 541C560 541 520 541 480 541C440 541 400 541 360 541C320 541 280 541 240 541C200 541 160 541 120 541C80 541 40 541 20 541L0 541Z" fill="#ffffff"></path><path d="M0 155L20 167.3C40 179.7 80 204.3 120 212.3C160 220.3 200 211.7 240 209.7C280 207.7 320 212.3 360 204C400 195.7 440 174.3 480 172.7C520 171 560 189 600 193.2C640 197.3 680 187.7 720 187.5C760 187.3 800 196.7 840 193.2C880 189.7 920 173.3 940 165.2L960 157L960 541L940 541C920 541 880 541 840 541C800 541 760 541 720 541C680 541 640 541 600 541C560 541 520 541 480 541C440 541 400 541 360 541C320 541 280 541 240 541C200 541 160 541 120 541C80 541 40 541 20 541L0 541Z" fill="#b6a4c8"></path><path d="M0 212L20 216.7C40 221.3 80 230.7 120 233C160 235.3 200 230.7 240 227.3C280 224 320 222 360 223.7C400 225.3 440 230.7 480 233C520 235.3 560 234.7 600 238.3C640 242 680 250 720 254.3C760 258.7 800 259.3 840 258.3C880 257.3 920 254.7 940 253.3L960 252L960 541L940 541C920 541 880 541 840 541C800 541 760 541 720 541C680 541 640 541 600 541C560 541 520 541 480 541C440 541 400 541 360 541C320 541 280 541 240 541C200 541 160 541 120 541C80 541 40 541 20 541L0 541Z" fill="#6e4f93"></path><path d="M0 257L20 268.7C40 280.3 80 303.7 120 303.5C160 303.3 200 279.7 240 273.7C280 267.7 320 279.3 360 287.3C400 295.3 440 299.7 480 295.3C520 291 560 278 600 281.8C640 285.7 680 306.3 720 311.3C760 316.3 800 305.7 840 297.2C880 288.7 920 282.3 940 279.2L960 276L960 541L940 541C920 541 880 541 840 541C800 541 760 541 720 541C680 541 640 541 600 541C560 541 520 541 480 541C440 541 400 541 360 541C320 541 280 541 240 541C200 541 160 541 120 541C80 541 40 541 20 541L0 541Z" fill="#300f6a"></path><path d="M0 368L20 361.3C40 354.7 80 341.3 120 338.8C160 336.3 200 344.7 240 352C280 359.3 320 365.7 360 357.8C400 350 440 328 480 328.3C520 328.7 560 351.3 600 351.8C640 352.3 680 330.7 720 322.8C760 315 800 321 840 321.5C880 322 920 317 940 314.5L960 312L960 541L940 541C920 541 880 541 840 541C800 541 760 541 720 541C680 541 640 541 600 541C560 541 520 541 480 541C440 541 400 541 360 541C320 541 280 541 240 541C200 541 160 541 120 541C80 541 40 541 20 541L0 541Z" fill="#300f6a"></path><path d="M0 393L20 396C40 399 80 405 120 405.3C160 405.7 200 400.3 240 392.2C280 384 320 373 360 376.2C400 379.3 440 396.7 480 406.3C520 416 560 418 600 412.3C640 406.7 680 393.3 720 386.7C760 380 800 380 840 384.2C880 388.3 920 396.7 940 400.8L960 405L960 541L940 541C920 541 880 541 840 541C800 541 760 541 720 541C680 541 640 541 600 541C560 541 520 541 480 541C440 541 400 541 360 541C320 541 280 541 240 541C200 541 160 541 120 541C80 541 40 541 20 541L0 541Z" fill="#6e4f93"></path><path d="M0 450L20 445.5C40 441 80 432 120 426.8C160 421.7 200 420.3 240 423.5C280 426.7 320 434.3 360 435.7C400 437 440 432 480 433.8C520 435.7 560 444.3 600 443.3C640 442.3 680 431.7 720 426.8C760 422 800 423 840 427.8C880 432.7 920 441.3 940 445.7L960 450L960 541L940 541C920 541 880 541 840 541C800 541 760 541 720 541C680 541 640 541 600 541C560 541 520 541 480 541C440 541 400 541 360 541C320 541 280 541 240 541C200 541 160 541 120 541C80 541 40 541 20 541L0 541Z" fill="#b6a4c8"></path><path d="M0 470L20 473C40 476 80 482 120 486.2C160 490.3 200 492.7 240 495.3C280 498 320 501 360 495.8C400 490.7 440 477.3 480 472.5C520 467.7 560 471.3 600 472.3C640 473.3 680 471.7 720 475.5C760 479.3 800 488.7 840 491.8C880 495 920 492 940 490.5L960 489L960 541L940 541C920 541 880 541 840 541C800 541 760 541 720 541C680 541 640 541 600 541C560 541 520 541 480 541C440 541 400 541 360 541C320 541 280 541 240 541C200 541 160 541 120 541C80 541 40 541 20 541L0 541Z" fill="#ffffff"></path></svg>